# xmcd
# 
# Track frame offsets:
#     150
#     3265
#     18080
#     36432
#     53867
#     74985
#     91855
#     114237
#     137757
#     153007
#     179040
#     198180
#     223145
#     239432
#     270310
#     296895
#     315682
#     326500
#     350037
# 
# Disc length: 4784
# 
# Revision: 2
# Processed by: cddbd v1.5.2PL0 Copyright (c) Steve Scherf et al.
# Submitted via: BonkEnc v1.0.6
# 
DISCID=1c12ae13
DTITLE=Scorpions - World Wide Live
DYEAR=1985
DGENRE=Rock
TTITLE0=Countdown (Instrumental)
TTITLE1=Coming Home
TTITLE2=Blackout
TTITLE3=Bad Boys Running Wild
TTITLE4=Loving You Sunday Morning
TTITLE5=Make It Real
TTITLE6=Big City Nights
TTITLE7=Coast To Coast
TTITLE8=Holiday
TTITLE9=Still Loving You
TTITLE10=Rock You Like A Hurricane
TTITLE11=Can't Live Without You
TTITLE12=Another Piece Of Meat
TTITLE13=Dynamite
TTITLE14=The Zoo
TTITLE15=No One Like You
TTITLE16=Can't Get Enough (Part 1)
TTITLE17=Six String Sting
TTITLE18=Can't Get Enough (Part 2)
EXTD=YEAR: 1985
EXTT0=
EXTT1=
EXTT2=
EXTT3=
EXTT4=
EXTT5=
EXTT6=
EXTT7=
EXTT8=
EXTT9=
EXTT10=
EXTT11=
EXTT12=
EXTT13=
EXTT14=
EXTT15=
EXTT16=
EXTT17=
EXTT18=
PLAYORDER=
